<?xml version="1.0" encoding="iso-8859-1"?>
<!-- Generator: Adobe Illustrator 19.0.0, SVG Export Plug-In . SVG Version: 6.00 Build 0)  -->
<svg version="1.1" id="Layer_1" xmlns="http://www.w3.org/2000/svg" xmlns:xlink="http://www.w3.org/1999/xlink" x="0px" y="0px"
	 viewBox="0 0 512.001 512.001" style="enable-background:new 0 0 512.001 512.001;" xml:space="preserve">
<path style="fill:#CCCCCC;" d="M87.128,451.839v-52.2C53.244,398.594,19.376,388.914,0,376.009l14.517-50.555
	c25.422,15.065,54.341,23.225,83.888,23.67c33.884,0,57.012-16.679,57.012-42.487c0-24.196-18.826-39.798-58.624-54.322
	c-56.46-20.437-93.026-46.278-93.026-96.266c0-46.246,32.264-81.742,86.578-91.422V11.916h44.099v50.021
	c25.756,0.282,51.122,6.341,74.225,17.732l-14.524,49.478c-22.571-11.838-47.645-18.108-73.131-18.283
	c-37.643,0-51.098,19.361-51.098,37.635c0,22.058,19.361,34.419,65.072,52.71c60.235,22.584,87.128,51.624,87.128,99.491
	c0,45.719-31.729,86.052-90.896,95.723v55.399L87.128,451.839z"/>
<path style="fill:#2D2D2D;" d="M419.93,273.749h-22.204v-49.762c-0.027-6.11-4.997-11.042-11.106-11.025H282.06
	c-6.11-0.018-11.079,4.915-11.106,11.025v49.762h-22.203v-49.762c0.076-18.327,14.982-33.128,33.309-33.074h104.561
	c18.327-0.054,33.233,14.747,33.309,33.074L419.93,273.749L419.93,273.749z"/>
<path style="fill:#E21B1B;" d="M206.579,260.837l-49.907,239.248h355.328l-49.907-239.289L206.579,260.837z"/>
<path style="fill:#FFFFFF;" d="M280.666,345.365c-10.638-0.067-19.208-8.745-19.141-19.385c0.067-10.638,8.745-19.208,19.384-19.141
	c10.591,0.067,19.141,8.671,19.141,19.262C300.015,336.773,291.337,345.396,280.666,345.365z M388.006,345.365
	c-10.638-0.067-19.208-8.745-19.141-19.385c0.067-10.638,8.745-19.208,19.385-19.141c10.584,0.067,19.132,8.662,19.141,19.246
	c-0.027,10.675-8.701,19.306-19.376,19.279C388.011,345.365,388.009,345.365,388.006,345.365z"/>
<g>
</g>
<g>
</g>
<g>
</g>
<g>
</g>
<g>
</g>
<g>
</g>
<g>
</g>
<g>
</g>
<g>
</g>
<g>
</g>
<g>
</g>
<g>
</g>
<g>
</g>
<g>
</g>
<g>
</g>
</svg>
