<?xml version="1.0" encoding="iso-8859-1"?>
<!-- Generator: Adobe Illustrator 16.0.0, SVG Export Plug-In . SVG Version: 6.00 Build 0)  -->
<!DOCTYPE svg PUBLIC "-//W3C//DTD SVG 1.1//EN" "http://www.w3.org/Graphics/SVG/1.1/DTD/svg11.dtd">
<svg version="1.1" id="Capa_1" xmlns="http://www.w3.org/2000/svg" xmlns:xlink="http://www.w3.org/1999/xlink" x="0px" y="0px"
	 width="516.524px" height="516.524px" viewBox="0 0 516.524 516.524" style="enable-background:new 0 0 516.524 516.524;"
	 xml:space="preserve">
<g>
	<path d="M419.426,409.411c-0.109,5.395,1.571,12.652,1.571,12.652s-3.24,88.099-126.027,94.15
		c-122.797,6.065-150.156-78.708-150.156-78.708c-10.917-45.596,11.442-25.939-8.144-51.562
		c-34.431-40.889-90.08-57.579-56.666-117.631c18.499-27.355,37.78-17.722,40.886-63.826c33.259,50.494-68.384,72.826,0.621,118.836
		c16.867,8.976,56.3,13.81,62.091-53.572c-0.536-47.188-70.059-80.085-80.483-136.446C90.067,79.001,131.138,56.081,134.862,0
		c0.868,76.468-30.646,70.976-11.502,129.724c17.089,56.52,84.143,53.868,110.296,121.527
		c29.578,70.537-57.123,100.557,10.3,139.332c20.914,12.568,66.384-10.084,24.537-72.303c-14.678-26.938-21.175-33.186-19.056-61.11
		c4.39-33.722,33.29-31.335,28.163-80.636c34.275,37.473-20.719,63.543,3.604,125.099c7.009,18.183,63.297,56.738,74.044-29.788
		c1.741-92.442-106.037-95.941-59.808-213.583c-32.866,86.091,58.048,91.791,81.485,154.214
		c26.062,68.137-10.31,96.464-13.591,140.708c-5.03,36.505,54.777,53.597,59.813-2.917c1.753-28.924-37.454-34.392-24.972-70.092
		c0.651,33.295,38.988,33.076,47.751,66.591C452.064,377.418,424.681,388.159,419.426,409.411z"/>
</g>
<g>
</g>
<g>
</g>
<g>
</g>
<g>
</g>
<g>
</g>
<g>
</g>
<g>
</g>
<g>
</g>
<g>
</g>
<g>
</g>
<g>
</g>
<g>
</g>
<g>
</g>
<g>
</g>
<g>
</g>
</svg>
